<svg xmlns="http://www.w3.org/2000/svg" viewBox="0 0 1200 900" role="img" aria-labelledby="title desc">
  <title id="title">AI Trader terminal and chart thumbnail</title>
  <desc id="desc">A stylized terminal window with candlesticks and strategy lines.</desc>
  <defs>
    <linearGradient id="bg" x1="0" x2="1" y1="0" y2="1">
      <stop offset="0" stop-color="#f7f8fb"/>
      <stop offset="1" stop-color="#e7edf3"/>
    </linearGradient>
    <linearGradient id="panel" x1="0" x2="1" y1="0" y2="1">
      <stop offset="0" stop-color="#ffffff"/>
      <stop offset="1" stop-color="#f3f5f7"/>
    </linearGradient>
  </defs>
  <rect width="1200" height="900" fill="url(#bg)"/>
  <rect x="86" y="92" width="1028" height="716" fill="url(#panel)" stroke="#c9d3de" stroke-width="3"/>
  <rect x="86" y="92" width="1028" height="72" fill="#27313f"/>
  <circle cx="132" cy="128" r="12" fill="#ff6b5f"/>
  <circle cx="172" cy="128" r="12" fill="#f5bf4f"/>
  <circle cx="212" cy="128" r="12" fill="#53c27f"/>
  <text x="280" y="137" fill="#ffffff" font-family="Menlo, Consolas, monospace" font-size="26" font-weight="700">ai-trader</text>
  <rect x="132" y="222" width="334" height="514" fill="#1f2937"/>
  <text x="166" y="280" fill="#b7c4d1" font-family="Menlo, Consolas, monospace" font-size="26">server status</text>
  <text x="166" y="340" fill="#7dd3a8" font-family="Menlo, Consolas, monospace" font-size="25">provider: local</text>
  <text x="166" y="400" fill="#7dd3a8" font-family="Menlo, Consolas, monospace" font-size="25">strategy: chanlun</text>
  <text x="166" y="460" fill="#f3c969" font-family="Menlo, Consolas, monospace" font-size="25">signals: review</text>
  <text x="166" y="536" fill="#b7c4d1" font-family="Menlo, Consolas, monospace" font-size="22">TSLA  1d</text>
  <text x="166" y="586" fill="#b7c4d1" font-family="Menlo, Consolas, monospace" font-size="22">NVDA  5min</text>
  <text x="166" y="636" fill="#b7c4d1" font-family="Menlo, Consolas, monospace" font-size="22">GOOG  30min</text>
  <rect x="526" y="222" width="528" height="514" fill="#ffffff" stroke="#d7dee7" stroke-width="2"/>
  <line x1="566" y1="654" x2="1018" y2="654" stroke="#d7dee7" stroke-width="2"/>
  <line x1="566" y1="552" x2="1018" y2="552" stroke="#e3e8ee" stroke-width="2"/>
  <line x1="566" y1="450" x2="1018" y2="450" stroke="#e3e8ee" stroke-width="2"/>
  <line x1="566" y1="348" x2="1018" y2="348" stroke="#e3e8ee" stroke-width="2"/>
  <g stroke-width="7" stroke-linecap="round">
    <line x1="604" y1="568" x2="604" y2="466" stroke="#7c8b9a"/>
    <line x1="664" y1="604" x2="664" y2="510" stroke="#7c8b9a"/>
    <line x1="724" y1="532" x2="724" y2="416" stroke="#7c8b9a"/>
    <line x1="784" y1="500" x2="784" y2="384" stroke="#7c8b9a"/>
    <line x1="844" y1="444" x2="844" y2="330" stroke="#7c8b9a"/>
    <line x1="904" y1="520" x2="904" y2="394" stroke="#7c8b9a"/>
    <line x1="964" y1="472" x2="964" y2="356" stroke="#7c8b9a"/>
  </g>
  <g>
    <rect x="584" y="500" width="40" height="52" fill="#3ca873"/>
    <rect x="644" y="536" width="40" height="48" fill="#cf5f5f"/>
    <rect x="704" y="446" width="40" height="62" fill="#3ca873"/>
    <rect x="764" y="410" width="40" height="62" fill="#3ca873"/>
    <rect x="824" y="358" width="40" height="54" fill="#3ca873"/>
    <rect x="884" y="428" width="40" height="58" fill="#cf5f5f"/>
    <rect x="944" y="386" width="40" height="52" fill="#3ca873"/>
  </g>
  <polyline points="594,552 664,584 724,508 784,472 844,412 904,486 964,438 1010,390" fill="none" stroke="#2e59ba" stroke-width="6"/>
  <polyline points="594,610 664,600 724,568 784,548 844,526 904,540 964,506 1010,474" fill="none" stroke="#e0aa35" stroke-width="5"/>
  <text x="566" y="281" fill="#27313f" font-family="Arial, Helvetica, sans-serif" font-size="34" font-weight="700">Strategy lab</text>
  <text x="566" y="318" fill="#6f7d8b" font-family="Arial, Helvetica, sans-serif" font-size="22">Backtests, signals, and local market data</text>
</svg>
